<?xml version="1.0" standalone="no"?>
<!DOCTYPE svg PUBLIC "-//W3C//DTD SVG 20010904//EN"
 "http://www.w3.org/TR/2001/REC-SVG-20010904/DTD/svg10.dtd">
<svg version="1.0" xmlns="http://www.w3.org/2000/svg"
 width="398.000000pt" height="398.000000pt" viewBox="0 0 398.000000 398.000000"
 preserveAspectRatio="xMidYMid meet">
<metadata>
Created by potrace 1.11, written by Peter Selinger 2001-2013
</metadata>
<g transform="translate(0.000000,398.000000) scale(0.100000,-0.100000)"
fill="#000000" stroke="none">
<path d="M1595 3791 c-44 -27 -133 -125 -141 -155 -13 -51 6 -80 149 -224
l141 -142 -147 -148 c-157 -158 -164 -171 -133 -230 8 -15 43 -55 79 -89 59
-57 69 -63 108 -63 41 0 46 4 191 147 l148 147 148 -147 c145 -143 150 -147
191 -147 39 0 49 6 108 63 36 34 71 74 79 89 31 59 24 72 -133 230 l-147 148
141 142 c143 145 161 172 148 226 -8 34 -134 159 -169 168 -51 13 -80 -6 -224
-149 l-142 -141 -138 136 c-75 75 -147 141 -159 147 -32 16 -64 14 -98 -8z"/>
<path d="M1605 2511 c-16 -10 -59 -48 -94 -85 -61 -64 -63 -68 -58 -108 5 -37
20 -56 148 -184 l143 -144 -147 -148 c-137 -139 -147 -151 -147 -186 0 -34 8
-47 76 -117 81 -82 111 -97 160 -79 16 6 91 73 166 148 l138 136 142 -141
c192 -188 201 -190 332 -54 67 70 68 73 63 113 -5 37 -20 56 -148 184 l-143
144 147 148 c137 139 147 151 147 186 0 34 -8 47 -76 117 -81 82 -111 97 -160
79 -16 -6 -91 -73 -166 -148 l-138 -136 -138 136 c-124 123 -169 158 -205 158
-7 0 -25 -8 -42 -19z"/>
<path d="M1533 1167 c-64 -62 -75 -78 -80 -115 l-6 -43 149 -149 148 -150
-141 -142 c-143 -145 -161 -172 -148 -225 8 -35 134 -160 169 -169 51 -13 80
6 224 149 l142 141 143 -141 c143 -143 172 -162 223 -149 35 9 161 134 169
168 13 54 -5 81 -148 226 l-141 142 147 148 c157 158 164 171 133 230 -8 15
-43 55 -79 90 -59 56 -69 62 -108 62 -41 0 -46 -4 -191 -147 l-148 -147 -148
147 c-145 144 -150 147 -192 147 -39 0 -48 -5 -117 -73z"/>
</g>
</svg>
