<?xml version="1.0" standalone="no"?>
<!DOCTYPE svg PUBLIC "-//W3C//DTD SVG 20010904//EN"
 "http://www.w3.org/TR/2001/REC-SVG-20010904/DTD/svg10.dtd">
<svg version="1.0" xmlns="http://www.w3.org/2000/svg"
 width="398.000000pt" height="398.000000pt" viewBox="0 0 398.000000 398.000000"
 preserveAspectRatio="xMidYMid meet">
<metadata>
Created by potrace 1.11, written by Peter Selinger 2001-2013
</metadata>
<g transform="translate(0.000000,398.000000) scale(0.100000,-0.100000)"
fill="#000000" stroke="none">
<path d="M1599 3793 c-46 -32 -139 -133 -145 -158 -12 -50 7 -78 150 -220
l144 -141 -144 -144 c-80 -79 -147 -154 -150 -167 -11 -43 7 -78 81 -150 66
-65 78 -73 112 -73 21 0 44 4 51 8 7 5 76 71 153 147 l139 138 140 -139 c77
-76 150 -143 163 -148 49 -18 91 1 160 73 67 69 84 102 73 144 -3 12 -68 85
-146 162 -77 77 -140 143 -140 147 0 5 63 70 140 147 139 139 158 167 146 217
-8 32 -140 162 -172 170 -49 12 -79 -8 -221 -149 -79 -77 -145 -139 -147 -136
-3 2 -68 66 -144 142 -123 121 -145 139 -178 143 -27 4 -47 0 -65 -13z"/>
<path d="M1603 2510 c-15 -10 -54 -45 -86 -77 -47 -48 -60 -68 -64 -101 l-6
-42 149 -150 148 -150 -147 -149 c-121 -122 -147 -154 -147 -177 0 -42 19 -73
84 -134 61 -58 91 -77 116 -75 8 1 22 3 31 3 10 1 83 67 164 146 l146 144 141
-140 c77 -76 151 -143 165 -149 41 -15 75 1 150 74 81 78 96 114 70 163 -9 16
-74 87 -146 158 -72 72 -131 132 -131 136 0 3 59 64 131 135 72 72 137 143
146 159 26 50 11 85 -71 164 -41 40 -79 73 -85 73 -72 8 -71 9 -236 -155
l-135 -134 -146 144 c-80 79 -151 145 -157 145 -7 1 -22 3 -34 4 -12 1 -35 -6
-50 -15z"/>
<path d="M1605 1228 c-60 -33 -155 -146 -155 -185 0 -36 25 -66 165 -204 69
-68 125 -127 125 -131 0 -5 -60 -68 -133 -141 -74 -73 -139 -143 -146 -156
-24 -45 -6 -88 71 -162 39 -38 81 -72 94 -75 49 -12 79 8 221 149 79 77 145
139 147 136 3 -2 67 -65 143 -140 76 -75 148 -140 161 -144 45 -13 83 6 154
77 70 72 85 100 74 143 -3 13 -69 87 -146 165 -77 77 -140 144 -140 148 0 4
63 70 140 146 77 76 143 149 146 162 11 44 -7 79 -81 152 -66 64 -78 72 -112
72 -21 0 -44 -4 -51 -9 -8 -4 -76 -70 -153 -146 l-139 -139 -139 139 c-77 77
-148 142 -158 146 -27 11 -65 10 -88 -3z"/>
</g>
</svg>
